<svg width="40" height="40" viewBox="0 0 40 40" fill="none" xmlns="http://www.w3.org/2000/svg">
<path d="M30.1648 4.2365C32.0895 3.76102 33.965 4.08347 35.8327 4.16266C36.4449 4.18862 36.883 4.39755 36.7572 5.26721C36.6729 5.84988 37.1062 6.4913 37.2141 7.12228C37.2818 7.51843 37.1747 7.94388 37.1481 8.35632C37.138 8.51215 37.1211 8.66894 37.1285 8.82429C37.3053 12.5118 37.4728 16.1999 37.67 19.8864C37.7489 21.3606 37.9662 22.8301 37.992 24.304C38.0263 26.2614 37.9421 28.2212 37.895 30.1797C37.8585 31.6975 37.7985 33.2146 37.7534 34.7322C37.7309 35.4866 37.2763 35.9879 36.6282 36.1613C34.9229 36.6175 33.1941 36.9902 31.4666 37.3593C30.8879 37.4829 30.3893 37.3252 30.2753 36.4663C28.9458 36.6852 27.663 36.9543 26.3661 37.0967C24.2923 37.3244 22.2113 37.4983 20.1295 37.6388C17.8839 37.7903 15.6345 37.9417 13.3858 37.9579C12.5839 37.9637 11.7122 38.172 10.9149 37.6053C10.6016 37.3826 10.0117 37.5241 9.54847 37.5341C8.29923 37.5613 7.04755 37.6654 5.80333 37.6056C5.47695 37.5898 5.09129 37.1377 4.88412 36.7955C4.67905 36.4568 4.69799 35.9917 4.55597 35.6048C4.45653 35.3339 4.23042 35.1117 4.09962 34.8487C3.95249 34.5529 3.75389 34.2396 3.74074 33.9271C3.57286 29.9351 3.39099 25.9428 3.30042 21.9486C3.21037 17.9774 3.20293 14.0041 2.66024 10.0593C2.61861 9.75669 2.4331 9.44425 2.23622 9.19828C1.82178 8.6805 2.00383 8.26788 2.38851 7.8679C1.72571 6.99429 1.95475 6.37368 3.01951 6.24463C5.78383 5.90957 8.55191 5.60526 11.3872 5.28082C11.42 4.74098 11.4063 4.14384 11.5119 3.56834C11.5665 3.27068 11.7757 2.87802 12.0204 2.77445C12.2401 2.68147 12.604 2.92534 12.9828 3.0455C13.2465 2.96636 13.6336 2.78747 14.0364 2.73991C16.0636 2.50054 18.0927 2.26874 20.1261 2.09154C20.9314 2.02137 21.7498 2.11296 22.562 2.10554C23.2536 2.09923 23.9508 2.10418 24.6346 2.01846C25.5875 1.89902 26.1139 2.36249 26.022 3.31089C25.9946 3.59481 26.0178 3.88358 26.0178 4.23967C27.4278 4.23967 28.7648 4.23967 30.1648 4.2365ZM32.361 33.327C32.8088 33.4554 33.2501 33.6369 33.7068 33.6917C33.9671 33.7229 34.3617 33.6287 34.5 33.4451C34.6904 33.1924 34.7637 32.8025 34.7674 32.47C34.7795 31.4098 34.7638 30.3476 34.7096 29.2887C34.4205 23.6365 34.1194 17.985 33.8145 12.3337C33.7622 11.3654 33.7254 10.391 33.5789 9.43496C33.4802 8.79084 33.2289 8.16293 32.982 7.55333C32.9248 7.41209 32.599 7.28663 32.4108 7.30403C30.8627 7.44714 29.3174 7.6216 27.7722 7.79499C26.8085 7.90313 26.8162 7.90929 26.869 8.84586C26.891 9.2376 26.8762 9.6314 26.8783 10.0243C26.8853 11.366 26.4674 11.9501 25.1257 12.1642C22.9064 12.5182 20.6799 12.851 18.4445 13.0733C16.7628 13.2404 15.0627 13.2445 13.3701 13.2651C12.9845 13.2698 12.5452 13.1202 12.2198 12.9072C11.5643 12.478 11.2511 10.9657 11.512 10.0469C11.6323 9.62324 11.6744 9.17761 11.7663 8.66115C9.25923 8.88633 6.89635 9.09856 4.49742 9.31402C4.51792 9.706 4.50778 10.0068 4.5531 10.2992C4.87449 12.3725 5.24424 14.4391 5.52788 16.5174C5.97713 19.8091 6.35748 23.11 6.80026 26.4026C6.88768 27.0527 6.84467 27.5461 6.05607 27.7145C6.20867 29.9451 6.36801 32.1323 6.50082 34.321C6.53192 34.8334 6.75911 35.0118 7.25005 34.9728C8.6386 34.8625 10.0285 34.7695 11.417 34.6582C11.5664 34.6463 11.7812 34.6017 11.8435 34.499C12.1391 34.0116 12.5982 34.0434 13.0696 34.0284C14.1486 33.9939 15.2267 33.9317 16.3053 33.8861C16.4188 33.8813 16.56 33.8749 16.644 33.9328C17.4021 34.4559 18.2804 34.2311 19.1002 34.3026C19.8496 34.368 20.616 34.276 21.372 34.2174C21.9199 34.1749 22.4862 34.1466 23.004 33.9846C24.3935 33.5497 25.7364 32.9538 27.2487 33.0523C27.5875 33.0744 27.939 32.9676 28.2789 32.8937C29.1249 32.7099 29.3924 32.869 29.5496 33.6927C30.4425 33.5726 31.3365 33.4523 32.361 33.327Z" fill="black"/>
<path d="M32.2957 33.3295C31.3365 33.4523 30.4425 33.5726 29.5496 33.6927C29.3924 32.869 29.1249 32.7099 28.2789 32.8937C27.939 32.9676 27.5875 33.0744 27.2487 33.0523C25.7364 32.9538 24.3935 33.5497 23.004 33.9846C22.4862 34.1466 21.9199 34.1749 21.372 34.2174C20.616 34.276 19.8496 34.368 19.1002 34.3026C18.2804 34.2311 17.4021 34.4559 16.644 33.9328C16.56 33.8749 16.4188 33.8813 16.3053 33.8861C15.2267 33.9317 14.1486 33.9939 13.0696 34.0284C12.5982 34.0434 12.1391 34.0116 11.8435 34.499C11.7812 34.6017 11.5664 34.6463 11.417 34.6582C10.0285 34.7695 8.6386 34.8625 7.25005 34.9728C6.75911 35.0118 6.53192 34.8334 6.50082 34.321C6.36801 32.1323 6.20867 29.9451 6.05607 27.7145C6.84467 27.5461 6.88768 27.0527 6.80026 26.4026C6.35748 23.11 5.97713 19.8091 5.52788 16.5174C5.24424 14.4391 4.87449 12.3725 4.5531 10.2992C4.50778 10.0068 4.51792 9.706 4.49742 9.31402C6.89635 9.09856 9.25923 8.88633 11.7663 8.66115C11.6744 9.17761 11.6323 9.62324 11.512 10.0469C11.2511 10.9657 11.5643 12.478 12.2198 12.9072C12.5452 13.1202 12.9845 13.2698 13.3701 13.2651C15.0627 13.2445 16.7628 13.2404 18.4445 13.0733C20.6799 12.851 22.9064 12.5182 25.1257 12.1642C26.4674 11.9501 26.8853 11.366 26.8783 10.0243C26.8762 9.6314 26.891 9.2376 26.869 8.84586C26.8162 7.90929 26.8085 7.90313 27.7722 7.79499C29.3174 7.6216 30.8627 7.44714 32.4108 7.30403C32.599 7.28663 32.9248 7.41209 32.982 7.55333C33.2289 8.16293 33.4802 8.79084 33.5789 9.43496C33.7254 10.391 33.7622 11.3654 33.8145 12.3337C34.1194 17.985 34.4205 23.6365 34.7096 29.2887C34.7638 30.3476 34.7795 31.4098 34.7674 32.47C34.7637 32.8025 34.6904 33.1924 34.5 33.4451C34.3617 33.6287 33.9671 33.7229 33.7068 33.6917C33.2501 33.6369 32.8087 33.4554 32.2957 33.3295ZM29.8782 20.9131C29.1664 21.0662 28.4547 21.2192 27.6928 21.3831C27.6606 21.1783 27.6274 20.9307 27.5821 20.6854C27.4095 19.7503 26.8221 19.1235 26.0244 18.6709C25.9089 18.6054 25.7116 18.619 25.5824 18.6707C25.527 18.6928 25.4907 18.9434 25.5447 19.0269C26.1936 20.0307 25.9793 21.1612 26.0438 22.2494C26.0728 22.7374 25.8382 22.9527 25.3367 22.9673C22.5513 23.0481 19.7651 23.1177 16.982 23.2496C15.2931 23.3297 13.605 23.4781 11.9246 23.6666C10.7713 23.7959 10.4565 24.2954 10.7098 25.4114C10.8046 25.8294 11.0081 26.2221 11.1186 26.6377C11.5444 28.2391 12.2968 29.6411 13.8256 30.4171C17.0592 32.0585 20.4079 32.359 23.8716 31.1304C26.0632 30.3531 27.7253 29.1723 27.7869 26.599C27.7952 26.2529 27.848 25.9017 27.8068 25.5616C27.6682 24.4195 28.0036 23.4612 28.891 22.7247C29.3849 22.3147 29.9288 21.9648 30.4397 21.5743C30.5687 21.4758 30.6579 21.3257 30.7654 21.1993C30.6254 21.0985 30.4957 20.9755 30.3416 20.9053C30.2457 20.8616 30.113 20.8977 29.8782 20.9131ZM19.9636 21.5048C21.0723 21.5653 22.1803 21.6509 23.2898 21.6778C24.0704 21.6967 24.3455 21.3417 24.1929 20.5815C24.0434 19.8364 23.8531 19.0994 23.6938 18.3561C23.5628 17.7449 23.368 17.2063 22.3635 17.2601C23.1951 16.8241 23.2875 16.2873 23.2187 15.6369C23.1739 15.2121 23.3145 14.7706 23.3074 14.3376C23.3047 14.1759 23.1402 13.8982 23.0125 13.8751C21.3629 13.5769 19.7728 13.9292 18.2022 14.3923C18.1136 14.4184 18.0093 14.6637 18.0391 14.7727C18.2984 15.7188 17.994 16.9592 19.185 17.2207C19.1387 18.76 19.0134 20.1598 19.9636 21.5048ZM18.0074 21.5865C18.9069 21.3437 19.168 20.8401 18.8838 19.9435C18.6895 19.3303 18.506 18.7128 18.348 18.0895C18.2351 17.6438 17.9953 17.4123 17.5203 17.4233C16.6851 17.4427 15.8488 17.4302 15.0144 17.4645C13.8604 17.512 13.7593 17.6371 13.8044 18.7571C13.8118 18.9395 13.7671 19.1242 13.7773 19.3061C13.8321 20.2868 13.8907 21.2684 14.3711 22.0505C14.8422 21.9704 15.2 21.891 15.5622 21.8518C16.3412 21.7675 17.1225 21.704 18.0074 21.5865Z" fill="#FCFDFD"/>
<path d="M29.9375 20.9056C30.113 20.8977 30.2457 20.8616 30.3416 20.9053C30.4957 20.9755 30.6254 21.0985 30.7654 21.1993C30.6579 21.3257 30.5687 21.4758 30.4397 21.5743C29.9288 21.9648 29.3849 22.3147 28.891 22.7247C28.0036 23.4612 27.6682 24.4195 27.8068 25.5616C27.848 25.9017 27.7952 26.2529 27.7869 26.599C27.7253 29.1723 26.0632 30.3531 23.8716 31.1304C20.4079 32.359 17.0592 32.0585 13.8256 30.4171C12.2968 29.6411 11.5444 28.2391 11.1186 26.6377C11.0081 26.2221 10.8046 25.8294 10.7098 25.4114C10.4565 24.2954 10.7713 23.7959 11.9246 23.6666C13.605 23.4781 15.2931 23.3297 16.982 23.2496C19.7651 23.1177 22.5513 23.0481 25.3367 22.9673C25.8382 22.9527 26.0728 22.7374 26.0438 22.2494C25.9793 21.1612 26.1936 20.0307 25.5447 19.0269C25.4907 18.9434 25.527 18.6928 25.5824 18.6707C25.7116 18.619 25.9089 18.6054 26.0244 18.6709C26.8221 19.1235 27.4095 19.7503 27.5821 20.6854C27.6274 20.9307 27.6606 21.1783 27.6928 21.3831C28.4547 21.2192 29.1665 21.0662 29.9375 20.9056ZM25.5839 26.5493C25.63 26.4497 25.6762 26.3502 25.7423 26.1534C25.9476 25.6698 26.1528 25.1862 26.365 24.6862C26.2449 24.6557 26.1731 24.6125 26.1149 24.6263C24.5908 24.9883 23.0886 25.0864 21.5235 24.7156C20.4602 24.4637 19.323 24.4797 18.217 24.4558C16.5412 24.4195 14.8548 24.4147 13.2661 25.0653C12.9323 25.202 12.3739 25.6029 12.4093 25.6943C12.6508 26.3175 12.9383 26.9658 13.3788 27.4574C13.7803 27.9057 14.4315 28.1218 14.9058 28.5191C15.8981 29.3501 17.065 29.8254 18.299 30.02C20.3641 30.3457 22.2733 29.6821 24.1235 28.8279C24.8371 28.4984 25.2915 27.944 25.7195 27.2418C25.8781 26.981 26.0367 26.7202 26.1953 26.4594C26.1558 26.4436 26.1163 26.4279 26.0769 26.4121C25.868 26.5567 25.6592 26.7013 25.4707 26.7566C25.48 26.6962 25.4894 26.6358 25.5839 26.5493ZM26.2133 25.8686C26.2504 25.896 26.2876 25.9235 26.3248 25.9509C26.3001 25.9115 26.2754 25.872 26.2133 25.8686Z" fill="#40A5F7"/>
<path d="M19.918 21.4705C19.0134 20.1597 19.1387 18.76 19.185 17.2207C17.994 16.9592 18.2984 15.7188 18.0391 14.7727C18.0093 14.6637 18.1136 14.4184 18.2022 14.3923C19.7728 13.9292 21.3629 13.5769 23.0125 13.8751C23.1402 13.8982 23.3047 14.1759 23.3074 14.3376C23.3145 14.7706 23.1739 15.2121 23.2187 15.6369C23.2875 16.2873 23.1951 16.8241 22.3635 17.2601C23.368 17.2063 23.5628 17.7449 23.6938 18.3561C23.8531 19.0994 24.0434 19.8364 24.1929 20.5815C24.3455 21.3417 24.0704 21.6967 23.2898 21.6778C22.1803 21.6509 21.0723 21.5653 19.918 21.4705ZM21.2184 18.3395C20.1661 18.3973 20.1679 18.4083 20.3903 19.435C20.4663 19.7863 20.466 20.1539 20.5064 20.5756C21.3937 20.5756 22.2897 20.5756 23.2532 20.5756C23.0295 19.7753 22.8278 19.0539 22.6307 18.3487C22.1649 18.3487 21.7563 18.3487 21.2184 18.3395ZM19.613 14.9807C19.5387 15.3835 19.4367 15.7857 19.4281 16.1898C19.4271 16.2358 19.9481 16.309 20.2304 16.3398C20.4581 16.3647 20.6908 16.345 20.9213 16.3445C22.1107 16.3423 22.1693 16.2303 21.7545 15.1349C21.5905 14.7018 21.3776 14.56 20.9364 14.6797C20.5371 14.788 20.1267 14.8556 19.613 14.9807Z" fill="#44A7F7"/>
<path d="M17.9551 21.6093C17.1225 21.7041 16.3412 21.7675 15.5622 21.8518C15.2 21.891 14.8422 21.9704 14.3711 22.0505C13.8907 21.2684 13.8321 20.2868 13.7773 19.3061C13.7671 19.1242 13.8118 18.9395 13.8044 18.7571C13.7593 17.6371 13.8604 17.512 15.0144 17.4645C15.8488 17.4302 16.6851 17.4427 17.5203 17.4233C17.9953 17.4123 18.2351 17.6438 18.348 18.0895C18.506 18.7128 18.6895 19.3303 18.8838 19.9435C19.168 20.8401 18.9069 21.3437 17.9551 21.6093ZM17.3229 20.4942C17.454 20.3343 17.7004 20.1709 17.6956 20.015C17.6783 19.446 17.5772 18.8796 17.5044 18.2862C17.2911 18.2566 17.1119 18.2122 16.9322 18.2103C16.1754 18.2022 15.4185 18.2069 14.5314 18.2069C14.7093 19.0959 14.8537 19.8745 15.0334 20.645C15.0567 20.745 15.2603 20.8667 15.3833 20.8699C16.0161 20.8864 16.6751 20.9947 17.3229 20.4942Z" fill="#46A8F8"/>
<path d="M25.6288 27.267C25.2915 27.9439 24.8371 28.4984 24.1235 28.8279C22.2733 29.6821 20.3641 30.3457 18.299 30.02C17.065 29.8254 15.8981 29.3501 14.9058 28.5191C14.4315 28.1218 13.7803 27.9057 13.3788 27.4574C12.9383 26.9658 12.6508 26.3175 12.4093 25.6943C12.3739 25.6029 12.9323 25.202 13.2661 25.0653C14.8548 24.4147 16.5412 24.4195 18.217 24.4558C19.323 24.4797 20.4602 24.4637 21.5235 24.7156C23.0886 25.0864 24.5908 24.9883 26.1149 24.6263C26.1731 24.6125 26.2449 24.6557 26.365 24.6862C26.1528 25.1862 25.9476 25.6697 25.6986 26.227C25.6028 26.3922 25.5508 26.4838 25.4987 26.5754C25.4894 26.6358 25.48 26.6961 25.4275 26.8206C25.4659 27.0122 25.5473 27.1396 25.6288 27.267ZM16.7438 26.2539C16.5425 25.5813 15.938 25.2257 15.2012 25.3144C14.4216 25.4082 14.5552 26.0796 14.4617 26.5389C14.3524 27.0752 14.8704 27.5748 15.4656 27.6558C16.1602 27.7504 16.5807 27.3235 16.7438 26.2539Z" fill="#FCFDFF"/>
<path d="M25.6741 27.2544C25.5473 27.1396 25.4658 27.0122 25.4174 26.8654C25.6592 26.7013 25.868 26.5567 26.0769 26.4121C26.1163 26.4279 26.1558 26.4436 26.1953 26.4594C26.0367 26.7202 25.8781 26.981 25.6741 27.2544Z" fill="#57B0F8"/>
<path d="M26.232 25.8505C26.2754 25.872 26.3001 25.9115 26.3248 25.9509C26.2876 25.9235 26.2504 25.896 26.232 25.8505Z" fill="#57B0F8"/>
<path d="M25.5413 26.5623C25.5508 26.4838 25.6028 26.3923 25.6886 26.2757C25.6762 26.3502 25.63 26.4497 25.5413 26.5623Z" fill="#57B0F8"/>
<path d="M21.283 18.3441C21.7563 18.3487 22.1649 18.3487 22.6307 18.3487C22.8278 19.0539 23.0295 19.7753 23.2532 20.5756C22.2897 20.5756 21.3937 20.5756 20.5064 20.5756C20.466 20.1539 20.4663 19.7863 20.3903 19.435C20.1679 18.4083 20.1661 18.3973 21.283 18.3441Z" fill="#F7FBFF"/>
<path d="M19.6671 14.961C20.1267 14.8556 20.5371 14.788 20.9364 14.6797C21.3776 14.56 21.5905 14.7018 21.7545 15.1349C22.1693 16.2303 22.1107 16.3423 20.9213 16.3445C20.6908 16.345 20.4581 16.3647 20.2304 16.3398C19.9481 16.309 19.4271 16.2358 19.4281 16.1898C19.4367 15.7857 19.5387 15.3835 19.6671 14.961Z" fill="#F6FBFF"/>
<path d="M17.2693 20.5074C16.6751 20.9946 16.0161 20.8864 15.3833 20.8699C15.2603 20.8667 15.0567 20.745 15.0334 20.645C14.8537 19.8745 14.7093 19.0959 14.5314 18.2069C15.4185 18.2069 16.1754 18.2022 16.9322 18.2103C17.1119 18.2122 17.2911 18.2566 17.5044 18.2862C17.5772 18.8796 17.6783 19.446 17.6956 20.015C17.7004 20.1709 17.4541 20.3342 17.2693 20.5074Z" fill="#F7FBFF"/>
<path d="M16.744 26.3059C16.5807 27.3236 16.1602 27.7504 15.4656 27.6558C14.8704 27.5748 14.3524 27.0752 14.4617 26.5389C14.5552 26.0796 14.4216 25.4082 15.2012 25.3144C15.938 25.2257 16.5424 25.5814 16.744 26.3059ZM15.7439 26.0418C15.5544 26.1186 15.3516 26.1761 15.1877 26.2894C15.1574 26.3103 15.2455 26.6093 15.3492 26.6853C15.4775 26.7794 15.6791 26.7749 15.849 26.813C15.8483 26.5723 15.8476 26.3317 15.7439 26.0418Z" fill="#47A9F8"/>
<path d="M15.7953 26.0664C15.8476 26.3317 15.8483 26.5723 15.849 26.813C15.6791 26.7749 15.4775 26.7794 15.3492 26.6853C15.2455 26.6093 15.1574 26.3103 15.1877 26.2894C15.3516 26.1761 15.5544 26.1185 15.7953 26.0664Z" fill="#F0F8FE"/>
<path d="M6.1687 26.1875C6.16342 26.1882 6.21597 28.1136 6.33465 28.262C6.43378 28.3859 6.41752 29.0962 6.42721 29.2609C6.45206 29.6834 6.657 30.0899 6.657 30.5248C6.657 31.5343 6.7103 32.6528 7.00806 33.6205C7.11315 33.9621 7.11657 34.3577 7.11657 34.7184C7.11657 34.9674 6.96135 34.7543 6.85806 34.6482C6.70415 34.49 6.57678 34.2842 6.57083 34.0577C6.56344 33.777 6.51338 33.5037 6.51338 33.2248" stroke="black" stroke-linecap="round"/>
<path d="M6.22607 26.8196C6.22607 27.1548 6.3244 27.5708 6.39682 27.8967C6.46301 28.1946 6.45586 28.5448 6.45586 28.8526C6.45586 29.4343 6.71437 29.9575 6.71437 30.5536C6.71437 31.0786 6.65693 31.5878 6.65693 32.1047C6.65693 32.645 6.80015 33.133 6.91384 33.6446C6.96843 33.8902 7.06176 34.1554 7.08778 34.4026C7.11406 34.6522 7.29124 34.8658 7.3447 35.1063C7.3808 35.2688 7.38087 34.7691 7.36065 34.6882C7.30877 34.4807 7.28884 34.2708 7.28884 34.0579C7.28884 33.7416 7.12871 33.4019 7.06065 33.0957C7.00016 32.8234 6.91544 32.4687 6.91544 32.1909C6.91544 31.9305 6.77651 31.7002 6.74469 31.4457C6.70703 31.1444 6.61584 30.8644 6.59948 30.5536C6.58499 30.2782 6.60688 29.7174 6.45586 29.4909" stroke="black" stroke-linecap="round"/>
<path d="M29.2675 33.4871C28.9785 33.6231 29.589 33.5804 29.7491 33.5938C30.0404 33.618 30.3134 33.6428 30.6055 33.6428C30.9986 33.6428 31.3918 33.6428 31.7849 33.6428C32.4871 33.6428 33.2126 33.6305 33.887 33.5909C34.9225 33.53 35.6304 31.057 35.2365 30.269" stroke="black" stroke-linecap="round"/>
<path d="M7.0009 32.7603C6.54392 32.8174 6.97367 34.6836 7.13066 34.9662C7.29241 35.2573 7.49846 35.3986 7.72755 35.615C7.89805 35.776 8.57326 35.8073 8.35039 36.0302" stroke="black" stroke-linecap="round"/>
<path d="M7.46799 33.5388C7.21445 33.5705 7.86549 34.5073 7.96396 34.6057C8.21563 34.8574 8.42079 34.9254 8.71368 35.0556C9.11041 35.2319 9.83401 35.0959 10.2708 35.0959C10.748 35.0959 11.1876 34.9573 11.6318 34.9402C11.9401 34.9284 13.1255 34.5369 13.1255 34.7845" stroke="black" stroke-linecap="round"/>
<path d="M4.92472 8.46948C4.92472 10.2153 4.42672 11.964 4.30188 13.7118" stroke="black" stroke-linecap="round"/>
<path d="M5.13232 8.677C5.11936 10.7514 5.05207 12.7919 4.8728 14.8535" stroke="black" stroke-linecap="round"/>
<path d="M5.33999 7.4314C5.37507 10.203 5.94291 13.1113 5.28809 15.8398" stroke="black" stroke-linecap="round"/>
<path d="M5.59953 9.35181C5.54662 12.3321 5.18118 15.2622 4.97668 18.2273" stroke="black" stroke-linecap="round"/>
<path d="M5.54756 12.2583C5.54756 14.1633 5.55351 16.0685 5.54756 17.9735C5.54587 18.5122 5.50569 19.0011 5.39185 19.5248" stroke="black" stroke-linecap="round"/>
<path d="M5.91093 13.9194C5.69727 16.4834 5.6423 19.0509 5.28809 21.6012" stroke="black" stroke-linecap="round"/>
<path d="M6.0147 17.1375C5.95511 19.2824 6.01542 21.4305 5.91089 23.5735" stroke="black" stroke-linecap="round"/>
<path d="M34.3022 33.4869C32.4662 33.3233 30.5447 33.2757 28.8004 33.9541" stroke="black" stroke-linecap="round"/>
<path d="M29.1638 33.4871C30.8705 33.5543 32.5406 33.9023 34.2504 33.9023" stroke="black" stroke-linecap="round"/>
<path d="M9.33655 34.6288C10.5337 34.6182 11.711 34.5272 12.8977 34.7326C13.5639 34.8479 14.2138 34.9989 14.8902 35.044" stroke="black" stroke-linecap="round"/>
<path d="M7.8313 34.9404C9.69219 34.9749 11.6222 35.0058 13.4369 35.4595" stroke="black" stroke-linecap="round"/>
<path d="M8.35034 34.6807C10.9489 34.7929 13.5517 35.1091 16.1359 35.4073" stroke="black" stroke-linecap="round"/>
<path d="M13.1255 35.0959C15.6908 34.9026 18.2091 35.1129 20.7553 35.3554" stroke="black" stroke-linecap="round"/>
<path d="M14.9421 34.5252C17.4347 34.5088 19.7434 34.4091 22.1567 35.0442" stroke="black" stroke-linecap="round"/>
<path d="M16.7588 34.8365C19.1213 34.1252 21.5881 34.4865 23.9734 34.7846" stroke="black" stroke-linecap="round"/>
<path d="M17.4336 34.6289C19.943 34.321 22.5315 34.1099 25.0634 34.1099" stroke="black" stroke-linecap="round"/>
<path d="M19.5096 34.7327C21.9315 34.6585 24.3543 34.7001 26.7762 34.6289" stroke="black" stroke-linecap="round"/>
<path d="M26.1533 34.2136C28.1947 34.199 30.2396 34.1711 32.278 34.0579" stroke="black" stroke-linecap="round"/>
</svg>
