<svg width="40" height="40" viewBox="0 0 40 40" fill="none" xmlns="http://www.w3.org/2000/svg">
<mask id="mask0_81720_12448" style="mask-type:alpha" maskUnits="userSpaceOnUse" x="0" y="0" width="40" height="40">
<rect width="40" height="40" fill="#D9D9D9"/>
</mask>
<g mask="url(#mask0_81720_12448)">
<path d="M18.3334 36.5834C16.2223 36.3612 14.257 35.7848 12.4375 34.8542C10.6181 33.9237 9.03476 32.7154 7.68754 31.2292C6.34032 29.7431 5.27782 28.0417 4.50004 26.1251C3.72226 24.2084 3.33337 22.1667 3.33337 20.0001C3.33337 17.4723 3.84032 15.139 4.85421 13.0001C5.8681 10.8612 7.25004 9.02786 9.00004 7.50008H5.00004V4.16675H15V14.1667H11.6667V9.62508C10.1389 10.8473 8.92365 12.3542 8.02087 14.1459C7.1181 15.9376 6.66671 17.889 6.66671 20.0001C6.66671 23.4167 7.78476 26.3681 10.0209 28.8542C12.257 31.3404 15.0278 32.7917 18.3334 33.2084V36.5834ZM17.625 27.6667L10.5834 20.5834L12.9167 18.2501L17.625 22.9584L27.0834 13.5001L29.4167 15.8751L17.625 27.6667ZM25 35.8334V25.8334H28.3334V30.3751C29.8612 29.1251 31.0764 27.6112 31.9792 25.8334C32.882 24.0556 33.3334 22.1112 33.3334 20.0001C33.3334 16.5834 32.2153 13.632 29.9792 11.1459C27.7431 8.6598 24.9723 7.20841 21.6667 6.79175V3.41675C25.8889 3.83341 29.4445 5.61119 32.3334 8.75008C35.2223 11.889 36.6667 15.639 36.6667 20.0001C36.6667 22.5279 36.1598 24.8612 35.1459 27.0001C34.132 29.139 32.75 30.9723 31 32.5001H35V35.8334H25Z" fill="#27AE60"/>
</g>
</svg>
